<svg xmlns="http://www.w3.org/2000/svg" xmlns:xlink="http://www.w3.org/1999/xlink" viewBox="0 0 841.89 595.28"><defs><style>.cls-1{fill:#32ff78;}.cls-2{fill:none;}.cls-3{fill:url(#Dégradé_sans_nom);}</style><linearGradient id="Dégradé_sans_nom" x1="536.27" y1="370.95" x2="536.27" y2="328.09" gradientUnits="userSpaceOnUse"><stop offset="0" stop-color="#36ff79"/><stop offset="0.19" stop-color="#31ff80"/><stop offset="0.47" stop-color="#24ff94"/><stop offset="0.8" stop-color="#0fffb5"/><stop offset="1" stop-color="#0fc"/><stop offset="1" stop-color="#0fc"/></linearGradient></defs><g id="Mode_Isolation" data-name="Mode Isolation"><path class="cls-1" d="M181.65,424a.47.47,0,0,1-.35-.15.48.48,0,0,1-.14-.34V410.12a.53.53,0,0,1,.14-.37.5.5,0,0,1,.35-.14h9a.48.48,0,0,1,.51.51v1.35a.48.48,0,0,1-.14.35.5.5,0,0,1-.37.15h-6.75v3.62h6.3a.53.53,0,0,1,.37.14.49.49,0,0,1,.14.36v1.27a.49.49,0,0,1-.14.36.57.57,0,0,1-.37.13h-6.3v3.75h6.91a.51.51,0,0,1,.37.14.5.5,0,0,1,.15.37v1.36a.45.45,0,0,1-.15.34.48.48,0,0,1-.37.15Z"/><path class="cls-1" d="M194.83,424a.5.5,0,0,1-.37-.15.48.48,0,0,1-.14-.34V410.12a.48.48,0,0,1,.51-.51h1.62a.56.56,0,0,1,.43.15,1,1,0,0,1,.19.24l4,7.38,4-7.38a1.22,1.22,0,0,1,.18-.24.58.58,0,0,1,.43-.15h1.6a.51.51,0,0,1,.37.14.5.5,0,0,1,.15.37v13.35a.45.45,0,0,1-.15.34.48.48,0,0,1-.37.15h-1.72a.46.46,0,0,1-.36-.15.47.47,0,0,1-.13-.34v-8.88l-2.87,5.47a1,1,0,0,1-.27.32.65.65,0,0,1-.43.13h-.84a.64.64,0,0,1-.44-.13,1,1,0,0,1-.25-.32L197,414.59v8.88a.44.44,0,0,1-.14.34.45.45,0,0,1-.35.15Z"/><path class="cls-1" d="M211.85,424a.45.45,0,0,1-.35-.15.45.45,0,0,1-.15-.34V410.12a.5.5,0,0,1,.15-.37.48.48,0,0,1,.35-.14h5.49a7.06,7.06,0,0,1,2.79.5,3.9,3.9,0,0,1,1.84,1.52,4.53,4.53,0,0,1,.66,2.53,4.49,4.49,0,0,1-.66,2.53,4,4,0,0,1-1.84,1.49,7.44,7.44,0,0,1-2.79.49h-3.05v4.8a.48.48,0,0,1-.14.34.46.46,0,0,1-.36.15Zm2.39-7.57h3a2.63,2.63,0,0,0,1.82-.56,2.1,2.1,0,0,0,.64-1.67,2.29,2.29,0,0,0-.6-1.65,2.45,2.45,0,0,0-1.86-.63h-3Z"/><path class="cls-1" d="M230.79,424.16a7.52,7.52,0,0,1-3.14-.6,4.58,4.58,0,0,1-2.05-1.87,6.59,6.59,0,0,1-.8-3.14c0-.59,0-1.17,0-1.75s0-1.16,0-1.76a6.43,6.43,0,0,1,.82-3.12A4.85,4.85,0,0,1,227.7,410a7.78,7.78,0,0,1,6.18,0,4.76,4.76,0,0,1,2.09,1.88,6.32,6.32,0,0,1,.82,3.12c0,.6,0,1.19,0,1.76s0,1.16,0,1.75a6.47,6.47,0,0,1-.8,3.14,4.5,4.5,0,0,1-2.06,1.87A7.55,7.55,0,0,1,230.79,424.16Zm0-2.35A3.06,3.06,0,0,0,233,421a3.6,3.6,0,0,0,.9-2.58c0-.6,0-1.16,0-1.67s0-1.06,0-1.65a4.37,4.37,0,0,0-.44-1.93,2.4,2.4,0,0,0-1.07-1.09,3.41,3.41,0,0,0-1.56-.34,3.32,3.32,0,0,0-1.54.34,2.47,2.47,0,0,0-1.08,1.09,4.51,4.51,0,0,0-.44,1.93c0,.59,0,1.14,0,1.65s0,1.07,0,1.67a3.6,3.6,0,0,0,.9,2.58A3.07,3.07,0,0,0,230.79,421.81Z"/><path class="cls-1" d="M242.12,424a.65.65,0,0,1-.48-.18.89.89,0,0,1-.23-.44L239,410.2s0-.07,0-.1a.18.18,0,0,1,0-.06.39.39,0,0,1,.13-.31.44.44,0,0,1,.3-.12h1.8c.34,0,.53.13.58.41l1.7,9.28,1.84-6a1.22,1.22,0,0,1,.22-.34.56.56,0,0,1,.46-.18h1.11a.58.58,0,0,1,.47.18,1,1,0,0,1,.18.34l1.87,6,1.7-9.26c0-.28.23-.41.57-.41h1.81a.38.38,0,0,1,.28.12.39.39,0,0,1,.13.31v.06a.44.44,0,0,1,0,.1l-2.44,13.14a.75.75,0,0,1-.23.44.67.67,0,0,1-.49.18h-1.37a.69.69,0,0,1-.49-.17.85.85,0,0,1-.23-.35l-2.3-6.84-2.29,6.84a1.19,1.19,0,0,1-.25.35.66.66,0,0,1-.49.17Z"/><path class="cls-1" d="M257.4,424a.45.45,0,0,1-.35-.15.45.45,0,0,1-.15-.34V410.12a.5.5,0,0,1,.15-.37.48.48,0,0,1,.35-.14h9a.48.48,0,0,1,.51.51v1.35a.48.48,0,0,1-.14.35.5.5,0,0,1-.37.15h-6.75v3.62H266a.49.49,0,0,1,.36.14.46.46,0,0,1,.15.36v1.27a.46.46,0,0,1-.15.36.53.53,0,0,1-.36.13h-6.3v3.75h6.91a.48.48,0,0,1,.51.51v1.36a.48.48,0,0,1-.14.34.5.5,0,0,1-.37.15Z"/><path class="cls-1" d="M270.56,424a.45.45,0,0,1-.35-.15.44.44,0,0,1-.14-.34V410.12a.49.49,0,0,1,.14-.37.48.48,0,0,1,.35-.14h5.31a6.05,6.05,0,0,1,3.91,1.15,4,4,0,0,1,1.44,3.34,4.1,4.1,0,0,1-.75,2.52,4.22,4.22,0,0,1-2,1.45l3,5.23a.55.55,0,0,1,.07.23.39.39,0,0,1-.14.3.41.41,0,0,1-.3.13h-1.86a.69.69,0,0,1-.53-.19,1.39,1.39,0,0,1-.29-.37l-2.65-4.85h-2.84v4.92a.48.48,0,0,1-.14.34.46.46,0,0,1-.36.15Zm2.36-7.73h2.89a2.7,2.7,0,0,0,1.86-.56,2.06,2.06,0,0,0,.62-1.59,2.14,2.14,0,0,0-.61-1.61,2.6,2.6,0,0,0-1.87-.59h-2.89Z"/><path class="cls-1" d="M293.05,424a.45.45,0,0,1-.35-.15.45.45,0,0,1-.15-.34v-4.64l-4.83-8.57a.46.46,0,0,1-.05-.1.5.5,0,0,1,0-.12.42.42,0,0,1,.13-.31.38.38,0,0,1,.28-.12h1.83a.63.63,0,0,1,.4.12.66.66,0,0,1,.21.27l3.49,6,3.46-6a1,1,0,0,1,.24-.27.62.62,0,0,1,.4-.12h1.8a.41.41,0,0,1,.43.43.49.49,0,0,1,0,.12.12.12,0,0,1-.05.1l-4.84,8.57v4.64a.44.44,0,0,1-.14.34.5.5,0,0,1-.37.15Z"/><path class="cls-1" d="M307.68,424.16a7.47,7.47,0,0,1-3.13-.6,4.53,4.53,0,0,1-2.05-1.87,6.47,6.47,0,0,1-.8-3.14c0-.59,0-1.17,0-1.75s0-1.16,0-1.76a6.32,6.32,0,0,1,.82-3.12A4.79,4.79,0,0,1,304.6,410a7,7,0,0,1,3.08-.64,7,7,0,0,1,3.1.64,4.82,4.82,0,0,1,2.09,1.88,6.32,6.32,0,0,1,.82,3.12c0,.6,0,1.19,0,1.76s0,1.16,0,1.75a6.59,6.59,0,0,1-.8,3.14,4.55,4.55,0,0,1-2.06,1.87A7.57,7.57,0,0,1,307.68,424.16Zm0-2.35a3.11,3.11,0,0,0,2.18-.79,3.6,3.6,0,0,0,.9-2.58c0-.6,0-1.16,0-1.67s0-1.06,0-1.65a4.51,4.51,0,0,0-.44-1.93,2.47,2.47,0,0,0-1.08-1.09,3.38,3.38,0,0,0-1.56-.34,3.31,3.31,0,0,0-1.53.34,2.42,2.42,0,0,0-1.08,1.09,4.37,4.37,0,0,0-.44,1.93c0,.59,0,1.14,0,1.65s0,1.07,0,1.67a3.6,3.6,0,0,0,.9,2.58A3,3,0,0,0,307.68,421.81Z"/><path class="cls-1" d="M322.54,424.16a7.37,7.37,0,0,1-3.09-.6,4.48,4.48,0,0,1-2-1.87,6.44,6.44,0,0,1-.72-3.23v-8.34a.5.5,0,0,1,.15-.37.48.48,0,0,1,.34-.14h1.87a.49.49,0,0,1,.36.14.52.52,0,0,1,.13.37v8.34a3.43,3.43,0,0,0,.8,2.49,3.37,3.37,0,0,0,4.38,0,3.48,3.48,0,0,0,.79-2.49v-8.34a.48.48,0,0,1,.51-.51h1.85a.47.47,0,0,1,.35.14.53.53,0,0,1,.14.37v8.34a6.55,6.55,0,0,1-.71,3.23,4.39,4.39,0,0,1-2,1.87A7.37,7.37,0,0,1,322.54,424.16Z"/><path class="cls-1" d="M332.34,424a.51.51,0,0,1-.49-.49V410.12a.5.5,0,0,1,.15-.37.48.48,0,0,1,.34-.14h5.31a6.08,6.08,0,0,1,3.92,1.15A4,4,0,0,1,343,414.1a4.16,4.16,0,0,1-.74,2.52,4.22,4.22,0,0,1-2,1.45l3,5.23a.53.53,0,0,1,.06.23.38.38,0,0,1-.13.3.41.41,0,0,1-.3.13H341a.71.71,0,0,1-.54-.19,1.34,1.34,0,0,1-.28-.37l-2.65-4.85H334.7v4.92a.47.47,0,0,1-.13.34.46.46,0,0,1-.36.15Zm2.36-7.73h2.89a2.71,2.71,0,0,0,1.87-.56,2.06,2.06,0,0,0,.61-1.59,2.13,2.13,0,0,0-.6-1.61,2.63,2.63,0,0,0-1.88-.59H334.7Z"/><path class="cls-1" d="M351.65,424a.51.51,0,0,1-.49-.49V410.12a.5.5,0,0,1,.15-.37.48.48,0,0,1,.34-.14h6a6.22,6.22,0,0,1,2.71.5,3.42,3.42,0,0,1,1.54,1.38,4,4,0,0,1,.51,2.05,3.25,3.25,0,0,1-.28,1.37,3.13,3.13,0,0,1-.68.95,3.26,3.26,0,0,1-.79.57,3.65,3.65,0,0,1,1.42,1.23,3.45,3.45,0,0,1,.61,2,4.33,4.33,0,0,1-.55,2.2,3.8,3.8,0,0,1-1.64,1.5,5.89,5.89,0,0,1-2.69.55Zm2.36-8.47h3.22a2.25,2.25,0,0,0,1.63-.52,1.82,1.82,0,0,0,.54-1.37,1.7,1.7,0,0,0-.54-1.34,2.39,2.39,0,0,0-1.63-.48H354Zm0,6.29h3.43a2.24,2.24,0,0,0,1.68-.6,2.05,2.05,0,0,0,.57-1.47,2,2,0,0,0-.58-1.49,2.23,2.23,0,0,0-1.67-.6H354Z"/><path class="cls-1" d="M371.35,424.16a7.37,7.37,0,0,1-3.09-.6,4.43,4.43,0,0,1-2-1.87,6.44,6.44,0,0,1-.72-3.23v-8.34a.5.5,0,0,1,.15-.37.48.48,0,0,1,.34-.14h1.87a.49.49,0,0,1,.36.14.52.52,0,0,1,.13.37v8.34a3.43,3.43,0,0,0,.8,2.49,3.37,3.37,0,0,0,4.38,0,3.48,3.48,0,0,0,.79-2.49v-8.34a.48.48,0,0,1,.51-.51h1.84a.49.49,0,0,1,.36.14.53.53,0,0,1,.14.37v8.34a6.55,6.55,0,0,1-.71,3.23,4.39,4.39,0,0,1-2,1.87A7.37,7.37,0,0,1,371.35,424.16Z"/><path class="cls-1" d="M385.64,424.16a8,8,0,0,1-3.18-.56,4.64,4.64,0,0,1-1.95-1.48,3.39,3.39,0,0,1-.71-1.91.41.41,0,0,1,.12-.31.45.45,0,0,1,.31-.12h1.83a.6.6,0,0,1,.4.11,1.55,1.55,0,0,1,.23.27,2.05,2.05,0,0,0,.47.77,2.55,2.55,0,0,0,1,.63,4.12,4.12,0,0,0,1.52.25,4,4,0,0,0,2.21-.5,1.53,1.53,0,0,0,.72-1.33,1.22,1.22,0,0,0-.39-1,3.59,3.59,0,0,0-1.19-.66,18.87,18.87,0,0,0-2.15-.62,12.12,12.12,0,0,1-2.57-.9,3.88,3.88,0,0,1-1.56-1.32,4,4,0,0,1,.13-4.14,4.3,4.3,0,0,1,1.84-1.45,6.92,6.92,0,0,1,2.86-.54,7.14,7.14,0,0,1,2.36.36,5.22,5.22,0,0,1,1.7.94,4.37,4.37,0,0,1,1,1.25,2.91,2.91,0,0,1,.38,1.31.43.43,0,0,1-.43.43h-1.9a.68.68,0,0,1-.33-.09.58.58,0,0,1-.27-.3,1.69,1.69,0,0,0-.8-1.09,3.08,3.08,0,0,0-1.74-.45,3.42,3.42,0,0,0-1.78.41,1.39,1.39,0,0,0-.68,1.27,1.35,1.35,0,0,0,.34.95,2.67,2.67,0,0,0,1.08.67c.5.19,1.16.4,2,.62a14.59,14.59,0,0,1,2.85.9,3.67,3.67,0,0,1,1.62,1.3,3.62,3.62,0,0,1,.51,2,3.69,3.69,0,0,1-.72,2.3,4.61,4.61,0,0,1-2,1.47A8.46,8.46,0,0,1,385.64,424.16Z"/><path class="cls-1" d="M394.72,424a.51.51,0,0,1-.49-.49V410.1a.47.47,0,0,1,.15-.35.48.48,0,0,1,.34-.14h1.93a.46.46,0,0,1,.49.49v13.37a.47.47,0,0,1-.13.34.46.46,0,0,1-.36.15Z"/><path class="cls-1" d="M401.26,424a.51.51,0,0,1-.49-.49V410.12a.5.5,0,0,1,.15-.37.48.48,0,0,1,.34-.14h1.58a.57.57,0,0,1,.42.13,1.31,1.31,0,0,1,.18.2l5.9,9.18v-9a.52.52,0,0,1,.13-.37.49.49,0,0,1,.36-.14h1.72a.5.5,0,0,1,.52.51v13.32a.47.47,0,0,1-.15.37.45.45,0,0,1-.34.15H410a.5.5,0,0,1-.41-.15l-.19-.18-5.88-9v8.82a.45.45,0,0,1-.15.34.46.46,0,0,1-.36.15Z"/><path class="cls-1" d="M416.17,424a.45.45,0,0,1-.35-.15.45.45,0,0,1-.15-.34V410.12a.5.5,0,0,1,.15-.37.48.48,0,0,1,.35-.14h9a.48.48,0,0,1,.51.51v1.35a.48.48,0,0,1-.14.35.5.5,0,0,1-.37.15h-6.75v3.62h6.3a.53.53,0,0,1,.37.14.49.49,0,0,1,.14.36v1.27a.49.49,0,0,1-.14.36.57.57,0,0,1-.37.13h-6.3v3.75h6.91a.53.53,0,0,1,.37.14.49.49,0,0,1,.14.37v1.36a.44.44,0,0,1-.14.34.5.5,0,0,1-.37.15Z"/><path class="cls-1" d="M433.82,424.16a8,8,0,0,1-3.19-.56,4.77,4.77,0,0,1-1.95-1.48,3.37,3.37,0,0,1-.7-1.91.41.41,0,0,1,.43-.43h1.82a.58.58,0,0,1,.4.11,1.25,1.25,0,0,1,.24.27,1.93,1.93,0,0,0,.47.77,2.59,2.59,0,0,0,1,.63,4.14,4.14,0,0,0,1.53.25,3.93,3.93,0,0,0,2.2-.5,1.52,1.52,0,0,0,.73-1.33,1.22,1.22,0,0,0-.39-1,3.65,3.65,0,0,0-1.2-.66,18.62,18.62,0,0,0-2.14-.62,11.92,11.92,0,0,1-2.57-.9,3.81,3.81,0,0,1-1.56-1.32,4,4,0,0,1,.12-4.14,4.33,4.33,0,0,1,1.85-1.45,6.9,6.9,0,0,1,2.85-.54,7.09,7.09,0,0,1,2.36.36,5.12,5.12,0,0,1,1.7.94,4.41,4.41,0,0,1,1,1.25,3,3,0,0,1,.38,1.31.44.44,0,0,1-.11.29.42.42,0,0,1-.32.14h-1.91a.68.68,0,0,1-.33-.09.56.56,0,0,1-.26-.3,1.69,1.69,0,0,0-.8-1.09,3.09,3.09,0,0,0-1.75-.45,3.45,3.45,0,0,0-1.78.41,1.51,1.51,0,0,0-.34,2.22,2.72,2.72,0,0,0,1.09.67c.5.19,1.16.4,2,.62a14.59,14.59,0,0,1,2.85.9,3.67,3.67,0,0,1,1.62,1.3,4.07,4.07,0,0,1-.22,4.3,4.5,4.5,0,0,1-2,1.47A8.37,8.37,0,0,1,433.82,424.16Z"/><path class="cls-1" d="M447.39,424.16a8,8,0,0,1-3.19-.56,4.77,4.77,0,0,1-1.95-1.48,3.37,3.37,0,0,1-.7-1.91.41.41,0,0,1,.43-.43h1.82a.58.58,0,0,1,.4.11,1.25,1.25,0,0,1,.24.27,1.93,1.93,0,0,0,.47.77,2.59,2.59,0,0,0,.95.63,4.14,4.14,0,0,0,1.53.25,3.93,3.93,0,0,0,2.2-.5,1.52,1.52,0,0,0,.73-1.33,1.22,1.22,0,0,0-.39-1,3.65,3.65,0,0,0-1.2-.66,18.62,18.62,0,0,0-2.14-.62,11.92,11.92,0,0,1-2.57-.9,3.88,3.88,0,0,1-1.56-1.32,4,4,0,0,1,.12-4.14,4.33,4.33,0,0,1,1.85-1.45,6.92,6.92,0,0,1,2.86-.54,7.07,7.07,0,0,1,2.35.36,5.12,5.12,0,0,1,1.7.94,4.41,4.41,0,0,1,1,1.25,2.91,2.91,0,0,1,.38,1.31.44.44,0,0,1-.11.29.42.42,0,0,1-.32.14h-1.91a.68.68,0,0,1-.33-.09.56.56,0,0,1-.26-.3,1.69,1.69,0,0,0-.8-1.09,3.08,3.08,0,0,0-1.74-.45,3.46,3.46,0,0,0-1.79.41,1.54,1.54,0,0,0-.34,2.22,2.72,2.72,0,0,0,1.09.67c.5.19,1.16.4,2,.62a14.59,14.59,0,0,1,2.85.9,3.67,3.67,0,0,1,1.62,1.3,4.07,4.07,0,0,1-.22,4.3,4.5,4.5,0,0,1-2,1.47A8.37,8.37,0,0,1,447.39,424.16Z"/><path class="cls-1" d="M462.07,424a.45.45,0,0,1-.35-.14.47.47,0,0,1-.13-.33V410.08a.49.49,0,0,1,.13-.34.45.45,0,0,1,.35-.13h1.08a.42.42,0,0,1,.33.13.49.49,0,0,1,.12.34v12.09h6.83a.45.45,0,0,1,.35.14.52.52,0,0,1,.12.36v.82a.46.46,0,0,1-.12.33.45.45,0,0,1-.35.14Z"/><path class="cls-1" d="M474,424a.45.45,0,0,1-.35-.14.46.46,0,0,1-.12-.33V410.08a.49.49,0,0,1,.12-.34.45.45,0,0,1,.35-.13h1.08a.45.45,0,0,1,.34.13.46.46,0,0,1,.14.34v13.41a.44.44,0,0,1-.14.33.46.46,0,0,1-.34.14Z"/><path class="cls-1" d="M480,424a.45.45,0,0,1-.47-.47V410.1a.52.52,0,0,1,.12-.36.46.46,0,0,1,.35-.13h1a.45.45,0,0,1,.49.49v5.08l5.47-5.24a1.54,1.54,0,0,1,.28-.21,1,1,0,0,1,.52-.12h1.11a.42.42,0,0,1,.33.67l-6.34,6.2,6.75,6.78a.43.43,0,0,1,.1.29.38.38,0,0,1-.12.28.37.37,0,0,1-.29.13H488.2a.88.88,0,0,1-.53-.14l-.27-.19-5.86-5.78v5.64a.43.43,0,0,1-.13.33.49.49,0,0,1-.36.14Z"/><path class="cls-1" d="M492.75,424a.46.46,0,0,1-.47-.47V410.1a.48.48,0,0,1,.13-.36.42.42,0,0,1,.34-.13h8.47a.45.45,0,0,1,.35.13.52.52,0,0,1,.12.36v.78a.5.5,0,0,1-.12.35.48.48,0,0,1-.35.12h-7v4.49h6.52a.45.45,0,0,1,.35.13.52.52,0,0,1,.12.36v.76a.49.49,0,0,1-.12.34.45.45,0,0,1-.35.13h-6.52v4.66h7.13a.46.46,0,0,1,.35.12.45.45,0,0,1,.13.35v.8a.43.43,0,0,1-.13.33.44.44,0,0,1-.35.14Z"/><path class="cls-1" d="M511,424a.45.45,0,0,1-.35-.14.46.46,0,0,1-.12-.33V410.1a.52.52,0,0,1,.12-.36.45.45,0,0,1,.35-.13H512a.5.5,0,0,1,.37.11.88.88,0,0,1,.15.17l6.8,10.46V410.1a.52.52,0,0,1,.12-.36.46.46,0,0,1,.35-.13h1a.48.48,0,0,1,.36.13.53.53,0,0,1,.13.36v13.37a.51.51,0,0,1-.13.34.45.45,0,0,1-.34.15h-1a.42.42,0,0,1-.34-.13l-.15-.16-6.78-10.35v10.17a.44.44,0,0,1-.14.33.49.49,0,0,1-.36.14Z"/><path class="cls-1" d="M525.66,424a.45.45,0,0,1-.35-.14.47.47,0,0,1-.13-.33V410.1a.53.53,0,0,1,.13-.36.45.45,0,0,1,.35-.13h8.46a.45.45,0,0,1,.35.13.52.52,0,0,1,.12.36v.78a.5.5,0,0,1-.12.35.48.48,0,0,1-.35.12h-7v4.49h6.52a.45.45,0,0,1,.35.13.52.52,0,0,1,.12.36v.76a.49.49,0,0,1-.12.34.45.45,0,0,1-.35.13h-6.52v4.66h7.14a.5.5,0,0,1,.35.12.48.48,0,0,1,.12.35v.8a.45.45,0,0,1-.47.47Z"/><path class="cls-1" d="M542.12,424a.69.69,0,0,1-.48-.15.89.89,0,0,1-.28-.39l-4.57-13.18a.6.6,0,0,1,0-.22.41.41,0,0,1,.41-.41h1.06a.5.5,0,0,1,.38.13.59.59,0,0,1,.16.24l4,11.62,4-11.62a.77.77,0,0,1,.17-.24.46.46,0,0,1,.37-.13h1.06a.44.44,0,0,1,.3.12.37.37,0,0,1,.13.29.6.6,0,0,1,0,.22l-4.59,13.18a.79.79,0,0,1-.26.39.69.69,0,0,1-.48.15Z"/><path class="cls-1" d="M552.14,424a.45.45,0,0,1-.47-.47V410.1a.52.52,0,0,1,.12-.36.46.46,0,0,1,.35-.13h8.47a.45.45,0,0,1,.35.13.52.52,0,0,1,.12.36v.78a.5.5,0,0,1-.12.35.48.48,0,0,1-.35.12h-7v4.49h6.52a.46.46,0,0,1,.35.13.52.52,0,0,1,.12.36v.76a.49.49,0,0,1-.12.34.46.46,0,0,1-.35.13h-6.52v4.66h7.13a.42.42,0,0,1,.47.47v.8a.46.46,0,0,1-.12.33.45.45,0,0,1-.35.14Z"/><path class="cls-1" d="M565,424a.46.46,0,0,1-.47-.47V410.1a.48.48,0,0,1,.13-.36.42.42,0,0,1,.34-.13h5a5.75,5.75,0,0,1,3.67,1.08,3.9,3.9,0,0,1,1.35,3.22,4,4,0,0,1-.79,2.57,4.08,4.08,0,0,1-2.14,1.39l3.15,5.45a.43.43,0,0,1,.07.23.37.37,0,0,1-.14.28.41.41,0,0,1-.29.13h-1a.63.63,0,0,1-.51-.19,2.48,2.48,0,0,1-.29-.37l-3-5.2h-3.59v5.29a.43.43,0,0,1-.13.33.49.49,0,0,1-.36.14Zm1.54-7.51h3.38a3.49,3.49,0,0,0,2.3-.64,2.79,2.79,0,0,0,0-3.82,3.43,3.43,0,0,0-2.31-.66h-3.38Z"/><path class="cls-1" d="M584.24,424a.46.46,0,0,1-.47-.47V410.1a.48.48,0,0,1,.13-.36.42.42,0,0,1,.34-.13h5.62a5.39,5.39,0,0,1,2.51.5,3.28,3.28,0,0,1,1.44,1.36,4,4,0,0,1,.46,1.93,3.41,3.41,0,0,1-.28,1.45,3,3,0,0,1-.68,1,3.81,3.81,0,0,1-.8.58,3.93,3.93,0,0,1,1.42,1.27,3.59,3.59,0,0,1,.63,2.14,4.3,4.3,0,0,1-.52,2.07,3.72,3.72,0,0,1-1.52,1.5A5.1,5.1,0,0,1,590,424Zm1.54-8.28h3.77a2.91,2.91,0,0,0,2-.61,2.1,2.1,0,0,0,.68-1.65,2,2,0,0,0-.68-1.6,3.07,3.07,0,0,0-2-.55h-3.77Zm0,6.62h4a2.77,2.77,0,0,0,2-.72,2.56,2.56,0,0,0,0-3.56,2.8,2.8,0,0,0-2-.7h-4Z"/><path class="cls-1" d="M598.35,424a.45.45,0,0,1-.35-.14.46.46,0,0,1-.12-.33V410.1a.52.52,0,0,1,.12-.36.45.45,0,0,1,.35-.13h8.47a.42.42,0,0,1,.34.13.48.48,0,0,1,.13.36v.78a.46.46,0,0,1-.13.35.45.45,0,0,1-.34.12h-7v4.49h6.51a.45.45,0,0,1,.35.13.53.53,0,0,1,.13.36v.76a.49.49,0,0,1-.13.34.45.45,0,0,1-.35.13h-6.51v4.66H607a.42.42,0,0,1,.47.47v.8a.46.46,0,0,1-.12.33.45.45,0,0,1-.35.14Z"/><path class="cls-1" d="M611.18,424a.45.45,0,0,1-.35-.14.46.46,0,0,1-.12-.33V410.1a.52.52,0,0,1,.12-.36.45.45,0,0,1,.35-.13h8.36a.43.43,0,0,1,.35.13.48.48,0,0,1,.13.36v.82a.45.45,0,0,1-.13.35.46.46,0,0,1-.35.12H612.7v4.78h6.43a.43.43,0,0,1,.35.13.48.48,0,0,1,.13.36v.82a.45.45,0,0,1-.13.34.43.43,0,0,1-.35.13H612.7v5.54a.44.44,0,0,1-.14.33.45.45,0,0,1-.35.14Z"/><path class="cls-1" d="M628.13,424.16a6.87,6.87,0,0,1-3-.6,4.36,4.36,0,0,1-1.93-1.87,7.26,7.26,0,0,1-.75-3.17c0-.6,0-1.17,0-1.73s0-1.13,0-1.73a6.84,6.84,0,0,1,.79-3.15,4.45,4.45,0,0,1,2-1.88,7.15,7.15,0,0,1,5.87,0,4.47,4.47,0,0,1,2,1.88,6.72,6.72,0,0,1,.78,3.15c0,.6,0,1.18,0,1.73s0,1.13,0,1.73a7.13,7.13,0,0,1-.74,3.17,4.38,4.38,0,0,1-1.94,1.87A7,7,0,0,1,628.13,424.16Zm0-1.74a3.6,3.6,0,0,0,2.58-.94,4.3,4.3,0,0,0,1.07-3.06c0-.61.05-1.16.05-1.65s0-1-.05-1.63a5,5,0,0,0-.52-2.29,3,3,0,0,0-1.28-1.29,3.91,3.91,0,0,0-1.85-.42,3.79,3.79,0,0,0-1.8.42,3,3,0,0,0-1.28,1.29,5.22,5.22,0,0,0-.54,2.29c0,.6,0,1.15,0,1.63s0,1,0,1.65a4.26,4.26,0,0,0,1.08,3.06A3.56,3.56,0,0,0,628.13,422.42Z"/><path class="cls-1" d="M637.75,424a.45.45,0,0,1-.35-.14.46.46,0,0,1-.12-.33V410.1a.52.52,0,0,1,.12-.36.45.45,0,0,1,.35-.13h5a5.73,5.73,0,0,1,3.67,1.08,3.9,3.9,0,0,1,1.35,3.22,4,4,0,0,1-.79,2.57,4,4,0,0,1-2.14,1.39l3.16,5.45a.53.53,0,0,1,.06.23.35.35,0,0,1-.13.28.41.41,0,0,1-.3.13h-1a.64.64,0,0,1-.52-.19,2.4,2.4,0,0,1-.28-.37l-3-5.2h-3.58v5.29a.44.44,0,0,1-.14.33.47.47,0,0,1-.36.14Zm1.54-7.51h3.38a3.46,3.46,0,0,0,2.29-.64,2.37,2.37,0,0,0,.76-1.92A2.41,2.41,0,0,0,645,412a3.43,3.43,0,0,0-2.31-.66h-3.38Z"/><path class="cls-1" d="M651.59,424a.45.45,0,0,1-.35-.14.47.47,0,0,1-.13-.33V410.1a.53.53,0,0,1,.13-.36.45.45,0,0,1,.35-.13h8.46a.45.45,0,0,1,.35.13.52.52,0,0,1,.12.36v.78a.5.5,0,0,1-.12.35.48.48,0,0,1-.35.12h-7v4.49h6.52a.45.45,0,0,1,.35.13.52.52,0,0,1,.12.36v.76a.49.49,0,0,1-.12.34.45.45,0,0,1-.35.13h-6.52v4.66h7.14a.5.5,0,0,1,.35.12.48.48,0,0,1,.12.35v.8a.45.45,0,0,1-.47.47Z"/><rect class="cls-2" x="-4.25" y="85.04" width="850.39" height="425.2"/><path d="M323.64,298H308.7a3.45,3.45,0,0,0-2.54,1.05,3.63,3.63,0,0,0-1.05,2.69v65.44a3.63,3.63,0,0,0,1.05,2.69A3.45,3.45,0,0,0,308.7,371h14.94a3.6,3.6,0,0,0,3.74-3.74V301.77a3.6,3.6,0,0,0-3.74-3.74Zm88.67,2.47a29.65,29.65,0,0,0-15.47-4,32.54,32.54,0,0,0-14.94,3.14,30.7,30.7,0,0,0-10,7.92v-5.83a3.58,3.58,0,0,0-3.73-3.74H353.52a3.43,3.43,0,0,0-2.54,1.05,3.63,3.63,0,0,0-1.05,2.69v65.44A3.63,3.63,0,0,0,351,369.9a3.43,3.43,0,0,0,2.54,1.05h15.83a3.43,3.43,0,0,0,2.54-1.05,3.63,3.63,0,0,0,1.05-2.69v-36q0-7.92,4.18-12.33t11.21-4.4q7.32,0,11.13,4.4t3.81,12.33v36A3.58,3.58,0,0,0,407,371h15.84a3.71,3.71,0,0,0,2.62-1.05,3.54,3.54,0,0,0,1.12-2.69V330.3q0-10.76-3.81-18.3A27.34,27.34,0,0,0,412.31,300.5ZM323.94,266H308.25a3.33,3.33,0,0,0-2.54,1.12,3.87,3.87,0,0,0-1,2.76V281.8a3.61,3.61,0,0,0,1,2.69,3.45,3.45,0,0,0,2.54,1.05h15.69a3.86,3.86,0,0,0,2.76-1.05,3.5,3.5,0,0,0,1.13-2.69V269.85a3.84,3.84,0,0,0-3.89-3.88Zm-43,.39H267a4.36,4.36,0,0,0-3.36,1.2,9.14,9.14,0,0,0-1.42,1.79L234.45,320,207,269.35c-.3-.4-.82-1-1.57-1.79a4.39,4.39,0,0,0-3.36-1.2h-13.9a3.67,3.67,0,0,0-2.61,1.05,3.5,3.5,0,0,0-1.12,2.69v97.11a3.5,3.5,0,0,0,1.12,2.69,3.67,3.67,0,0,0,2.61,1.05h15.24a3.45,3.45,0,0,0,2.54-1.05,3.63,3.63,0,0,0,1.05-2.69V306.85l19,35.56a9.06,9.06,0,0,0,1.94,2.39,4.6,4.6,0,0,0,3.14,1.05h7a4.58,4.58,0,0,0,3.14-1.05,8.87,8.87,0,0,0,1.94-2.39l19-35.56v60.36a3.66,3.66,0,0,0,1,2.69,3.47,3.47,0,0,0,2.54,1.05h15.25a3.59,3.59,0,0,0,3.73-3.74V270.1a3.59,3.59,0,0,0-3.73-3.74Zm202.92,86.21H480.7c-3.39,0-5.75-1.07-7.1-3.21s-2-5.1-2-8.89V315.66H483.2a3.48,3.48,0,0,0,2.54-1,3.63,3.63,0,0,0,1.05-2.69V301.77a3.63,3.63,0,0,0-1.05-2.69A3.45,3.45,0,0,0,483.2,298H471.58V270a3.58,3.58,0,0,0-3.73-3.74H453.21a3.71,3.71,0,0,0-2.62,1.05,3.52,3.52,0,0,0-1.12,2.69v28h-8.12a3.6,3.6,0,0,0-3.74,3.74v10.16a3.58,3.58,0,0,0,3.74,3.73h8.12v26.6q0,9.72,3.37,16.14a20.86,20.86,0,0,0,9.93,9.48A37.14,37.14,0,0,0,478.61,371h5.23a3.45,3.45,0,0,0,2.54-1.05,3.63,3.63,0,0,0,1.05-2.69v-11a3.57,3.57,0,0,0-3.59-3.59ZM657.36,254a42.69,42.69,0,0,0-2.13-12.31,27.34,27.34,0,0,0-5.3-9.32,22.9,22.9,0,0,0-8.4-6,29.88,29.88,0,0,0-11.69-2.09,26,26,0,0,0-12.28,2.6,24.15,24.15,0,0,0-8,6.65v-4.82a3.1,3.1,0,0,0-.91-2.28,3.18,3.18,0,0,0-2.32-.89H594a3.19,3.19,0,0,0-2.33.89,3.09,3.09,0,0,0-.9,2.28v83.73a3.06,3.06,0,0,0,.9,2.28,3.15,3.15,0,0,0,2.33.89h13.31a3,3,0,0,0,2.2-.89,3.06,3.06,0,0,0,.9-2.28V284.08a21.79,21.79,0,0,0,7.95,6.4,26,26,0,0,0,11.44,2.35,29.14,29.14,0,0,0,11.69-2.16,23.78,23.78,0,0,0,8.47-6.09,27.41,27.41,0,0,0,5.36-9.39,38.66,38.66,0,0,0,2-11.92c.09-1.69.13-3.25.13-4.69S657.45,255.62,657.36,254Zm-20,8.5a27.36,27.36,0,0,1-1.48,7.48,11.45,11.45,0,0,1-4.08,5.52,12.78,12.78,0,0,1-7.75,2.1,12.31,12.31,0,0,1-11.95-7.17,16.57,16.57,0,0,1-1.62-6.66c-.09-1.61-.13-3.21-.13-4.82s0-3.18.13-4.7a23.78,23.78,0,0,1,1.55-7.1,12.11,12.11,0,0,1,4.27-5.46,15.23,15.23,0,0,1,15.5-.06,11.5,11.5,0,0,1,4.08,5.52,27.43,27.43,0,0,1,1.48,7.48A60.79,60.79,0,0,1,637.33,262.51Zm-66.56-37H556.56a3.3,3.3,0,0,0-2.26.88,3,3,0,0,0-1,2.29v51.63q0,9.39-4.53,13.95t-12.53,4.57q-8.14,0-12.67-4.57t-4.52-13.95V228.7a3.1,3.1,0,0,0-.9-2.29,3.24,3.24,0,0,0-2.33-.88H501.77a3.22,3.22,0,0,0-2.33.88,3.07,3.07,0,0,0-.91,2.29v51.76q0,12,4.65,19.85a28.09,28.09,0,0,0,13.19,11.54,49.07,49.07,0,0,0,19.9,3.75q11.51,0,19.9-3.75a28.21,28.21,0,0,0,13.06-11.54q4.65-7.8,4.65-19.85V228.7a3.1,3.1,0,0,0-.91-2.29A3,3,0,0,0,570.77,225.53Z"/><path class="cls-3" d="M536.27,328.09c-7.07,0-25.6,32.09-22.07,38.21s40.51,6.27,44.13,0S543.33,328.09,536.27,328.09Z"/></g></svg>